<?xml version="1.0" standalone="no"?>
<!DOCTYPE svg PUBLIC "-//W3C//DTD SVG 20010904//EN"
 "http://www.w3.org/TR/2001/REC-SVG-20010904/DTD/svg10.dtd">
<svg version="1.0" xmlns="http://www.w3.org/2000/svg"
 width="1024.000000pt" height="1024.000000pt" viewBox="0 0 1024.000000 1024.000000"
 preserveAspectRatio="xMidYMid meet">

<g transform="translate(0.000000,1024.000000) scale(0.100000,-0.100000)"
fill="#000000" stroke="none">
<path d="M0 5120 l0 -5120 5120 0 5120 0 0 5120 0 5120 -5120 0 -5120 0 0
-5120z m5179 3846 c9 -11 6 -13 -14 -13 -26 0 -34 12 -12 20 6 3 13 6 13 6 1
1 7 -5 13 -13z m22 -120 c3 -46 11 -88 23 -111 8 -15 13 -41 12 -58 -2 -18 2
-36 8 -40 7 -5 3 -7 -10 -4 -27 6 -28 -19 -1 -46 15 -15 18 -27 12 -56 -12
-63 -10 -122 3 -144 12 -20 13 -20 8 -2 -6 20 -6 20 9 1 21 -28 27 -15 16 33
-6 30 -6 41 3 41 8 0 11 12 8 35 -2 19 -8 32 -13 29 -14 -8 -10 6 6 22 10 11
12 21 5 39 -6 16 -6 27 2 31 7 4 8 3 4 -4 -4 -7 -1 -12 9 -12 11 0 15 5 12 14
-3 8 4 26 16 40 l23 26 11 -30 c6 -17 8 -28 5 -26 -4 2 -8 -10 -8 -26 l-1 -31
13 24 c13 24 13 24 11 -8 -1 -22 -7 -33 -17 -33 -13 0 -13 -1 0 -10 12 -8 12
-10 1 -10 -11 0 -10 -4 3 -19 17 -19 17 -19 -1 -15 -16 5 -18 -2 -16 -73 1
-81 12 -100 39 -67 14 18 14 18 4 -3 -9 -19 -7 -24 12 -34 21 -11 22 -11 9 4
-7 10 -9 17 -3 17 15 0 33 -26 24 -36 -4 -4 2 -2 12 6 13 9 17 10 12 3 -4 -7
0 -23 8 -35 25 -36 18 -49 -14 -28 -12 8 -12 12 -2 18 9 6 -3 17 -38 35 -61
32 -63 32 -56 9 5 -16 1 -18 -32 -15 -56 4 -80 -23 -62 -69 7 -18 21 -42 30
-53 21 -26 50 -91 50 -113 0 -11 -7 -5 -20 16 -54 87 -78 -20 -30 -133 5 -11
13 -36 19 -55 10 -32 9 -33 -4 -16 -8 11 -15 27 -15 37 0 9 -6 22 -14 28 -7 6
-21 32 -31 56 -15 41 -15 50 -2 88 12 36 12 49 2 73 -20 48 -63 84 -101 84
-18 0 -40 3 -50 7 -12 4 -15 3 -10 -5 4 -7 3 -12 -2 -12 -5 0 -21 -12 -35 -26
-14 -14 -30 -23 -35 -20 -5 3 -16 -12 -25 -34 -8 -22 -21 -40 -29 -40 -10 0
-9 3 2 11 13 9 13 10 0 6 -8 -2 -14 -10 -12 -17 2 -7 -1 -16 -7 -19 -6 -4 -7
-12 -1 -21 8 -13 10 -12 10 3 0 9 4 17 9 17 20 0 21 -85 3 -147 l-18 -62 -17
49 c-18 50 -18 50 -42 34 -14 -9 -25 -24 -25 -33 0 -9 -5 -23 -10 -31 -6 -10
-7 -2 -3 25 7 48 19 65 44 65 11 0 19 5 19 11 0 6 7 8 16 5 13 -5 15 -1 11 26
-3 18 -7 43 -10 56 -3 12 0 39 8 60 7 20 14 29 14 20 1 -10 5 -18 11 -18 5 0
7 6 4 14 -3 8 -1 17 5 20 16 10 -17 92 -42 105 -12 6 -14 9 -5 7 19 -6 35 10
17 16 -8 3 -6 10 5 21 11 10 13 17 6 17 -8 0 -10 9 -6 25 4 14 2 25 -4 25 -5
0 -10 -5 -10 -11 0 -6 -7 -17 -15 -25 -8 -9 -15 -12 -15 -7 0 5 5 14 12 21 6
6 8 15 4 19 -4 4 -12 1 -17 -7 -9 -13 -10 -13 -6 0 2 8 18 19 35 24 19 5 32
15 32 25 0 11 -3 12 -8 4 -6 -9 -11 -7 -20 7 -9 16 -9 18 2 14 14 -5 14 2 2
81 -2 17 1 36 6 43 8 9 6 12 -5 12 -9 0 -19 4 -22 10 -4 6 2 7 16 1 24 -8 38
-31 20 -31 -6 0 -11 -4 -11 -8 0 -4 27 -7 59 -7 44 1 58 -1 54 -11 -2 -7 -11
-10 -20 -7 -13 5 -13 3 -2 -16 8 -11 17 -21 22 -21 4 0 5 -5 2 -10 -4 -6 -11
-8 -16 -5 -5 4 -4 -5 3 -19 6 -14 15 -26 20 -26 5 0 4 -9 -2 -19 -13 -26 -13
-27 10 -28 22 -2 35 12 20 22 -18 11 -12 35 8 28 10 -4 14 -2 9 3 -5 5 -18 9
-30 9 -11 0 -21 6 -23 13 -1 7 0 8 3 2 7 -16 26 -12 20 4 -4 10 -1 13 9 9 7
-3 14 0 14 6 0 6 -8 11 -17 11 -15 0 -16 2 -3 9 8 6 17 8 21 5 13 -7 18 23 6
36 -9 10 -8 12 5 7 12 -4 15 -2 11 9 -3 7 1 14 8 14 7 0 10 3 6 6 -8 8 16 33
26 27 4 -2 7 -9 7 -14 0 -6 -4 -7 -10 -4 -5 3 -10 2 -10 -3 0 -6 7 -13 15 -16
22 -8 30 20 15 52 -7 15 -14 32 -16 37 -1 6 -5 19 -9 30 -6 16 -5 17 4 5 18
-26 14 10 -6 50 -22 42 -22 71 -3 92 16 17 40 13 41 -6z m-536 -124 c-3 -3
-11 0 -18 7 -9 10 -8 11 6 5 10 -3 15 -9 12 -12z m737 -14 c-9 -9 -12 -7 -12
12 0 19 3 21 12 12 9 -9 9 -15 0 -24z m-432 -77 c0 -24 -27 7 -33 36 l-5 27
19 -25 c10 -13 19 -30 19 -38z m49 -38 c9 -7 11 -13 5 -13 -16 0 -45 35 -37
44 4 4 10 1 12 -6 2 -7 11 -18 20 -25z m-299 -29 c0 -8 -4 -14 -9 -14 -6 0 -9
9 -8 19 1 22 17 18 17 -5z m20 -109 c0 -5 -5 -3 -10 5 -5 8 -10 20 -10 25 0 6
5 3 10 -5 5 -8 10 -19 10 -25z m124 16 c3 -5 -1 -14 -8 -20 -12 -10 -14 -9
-11 6 2 10 4 19 4 21 2 5 10 2 15 -7z m46 -32 c0 -5 4 -8 9 -4 5 3 12 1 16 -5
7 -11 -5 -13 -29 -4 -18 7 -22 24 -6 24 6 0 10 -5 10 -11z m-44 -26 c-10 -10
-19 5 -10 18 6 11 8 11 12 0 2 -7 1 -15 -2 -18z m572 2 c-6 -14 -13 -24 -14
-22 -6 6 9 47 17 47 5 0 3 -11 -3 -25z m-40 -7 c-2 -6 -10 -13 -16 -14 -7 -1
-8 0 -2 3 5 2 8 9 4 14 -3 5 0 9 6 9 7 0 10 -5 8 -12z m-517 -29 c8 -15 8 -19
0 -15 -13 8 -14 -3 -3 -21 4 -6 16 -11 26 -10 10 1 21 -4 23 -10 3 -7 0 -13
-7 -13 -6 0 -8 5 -5 10 9 14 -8 13 -23 -2 -7 -7 -12 -8 -12 -2 0 6 -9 21 -19
33 -11 13 -17 29 -14 37 7 20 20 17 34 -7z m599 -3 c0 -2 -9 -6 -20 -9 -11 -3
-18 -1 -14 4 5 9 34 13 34 5z m-10 -30 c0 -3 -4 -8 -10 -11 -5 -3 -10 -1 -10
4 0 6 5 11 10 11 6 0 10 -2 10 -4z m-620 -45 c-5 -10 -6 -22 -2 -26 4 -4 -6
-5 -22 -2 -32 5 -100 -18 -92 -32 3 -5 -2 -15 -12 -22 -14 -11 -15 -11 -5 1 9
10 10 17 2 27 -13 15 -5 43 12 43 8 0 8 -4 -1 -15 -20 -24 -8 -24 35 1 22 13
33 24 25 24 -28 1 9 17 41 18 25 1 28 -2 19 -17z m656 -6 c0 -14 -4 -25 -8
-25 -10 0 -10 13 -2 34 9 23 12 20 10 -9z m-599 -1 c-3 -3 -12 -4 -19 -1 -8 3
-5 6 6 6 11 1 17 -2 13 -5z m53 -84 c0 -5 -5 -10 -11 -10 -5 0 -7 5 -4 10 3 6
8 10 11 10 2 0 4 -4 4 -10z m1670 -315 c0 -4 -9 4 -20 18 -11 14 -20 28 -20
32 0 4 9 -4 20 -18 11 -14 20 -28 20 -32z m-3017 20 c-3 -9 -8 -14 -10 -11 -3
3 -2 9 2 15 9 16 15 13 8 -4z m-22 -108 c-10 -9 -11 -8 -5 6 3 10 9 15 12 12
3 -3 0 -11 -7 -18z m-4 -49 c-3 -7 -5 -2 -5 12 0 14 2 19 5 13 2 -7 2 -19 0
-25z m3066 -16 c4 -21 3 -31 -3 -27 -6 3 -10 20 -10 37 0 38 5 34 13 -10z m-2
-65 c-10 -9 -11 -8 -5 6 3 10 9 15 12 12 3 -3 0 -11 -7 -18z m-2972 -321 c-3
-3 -11 5 -18 17 -13 21 -12 21 5 5 10 -10 16 -20 13 -22z m2880 -26 c-22 -41
-33 -53 -22 -22 8 20 34 62 39 62 2 0 -6 -18 -17 -40z m-2854 -20 c3 -5 1 -10
-4 -10 -6 0 -11 5 -11 10 0 6 2 10 4 10 3 0 8 -4 11 -10z m25 -40 c6 -11 8
-20 6 -20 -3 0 -10 9 -16 20 -6 11 -8 20 -6 20 3 0 10 -9 16 -20z m2776 -18
c-17 -16 -18 -16 -5 5 7 12 15 20 18 17 3 -2 -3 -12 -13 -22z m-2616 -151 c3
-2 -2 0 -11 5 -22 12 -78 64 -109 100 -14 16 7 0 45 -36 39 -35 72 -66 75 -69z
m2480 84 c-7 -9 -15 -13 -19 -10 -3 3 1 10 9 15 21 14 24 12 10 -5z m70 -9 c0
-3 -4 -8 -10 -11 -5 -3 -10 -1 -10 4 0 6 5 11 10 11 6 0 10 -2 10 -4z m-175
-66 c-3 -5 -12 -10 -18 -10 -7 0 -6 4 3 10 19 12 23 12 15 0z m90 0 c-3 -5
-20 -19 -38 -30 -32 -22 -32 -22 3 9 37 32 45 37 35 21z m-2425 -35 c11 -13
10 -14 -4 -9 -9 3 -16 10 -16 15 0 13 6 11 20 -6z m85 -45 c3 -6 -1 -7 -9 -4
-18 7 -21 14 -7 14 6 0 13 -4 16 -10z m2215 5 c0 -2 -13 -11 -30 -20 -38 -19
-40 -11 -2 9 31 17 32 18 32 11z m-4296 -2284 c35 -13 2 -18 -34 -5 -30 11
-31 13 -10 13 14 0 34 -4 44 -8z m126 -1 c0 -5 -7 -7 -15 -4 -8 4 -15 8 -15
10 0 2 7 4 15 4 8 0 15 -4 15 -10z m30 0 c0 -5 -2 -10 -4 -10 -3 0 -8 5 -11
10 -3 6 -1 10 4 10 6 0 11 -4 11 -10z m117 4 c-3 -3 -12 -4 -19 -1 -8 3 -5 6
6 6 11 1 17 -2 13 -5z m-230 -30 c-3 -3 -12 -4 -19 -1 -8 3 -5 6 6 6 11 1 17
-2 13 -5z m563 -260 l25 -15 -25 7 c-14 3 -29 10 -34 15 -16 14 6 10 34 -7z
m134 -53 c3 -4 18 -7 33 -5 27 4 28 3 3 -5 -22 -7 -60 2 -60 14 0 8 19 5 24
-4z m4439 -18 c-7 -2 -21 -2 -30 0 -10 3 -4 5 12 5 17 0 24 -2 18 -5z m64 -9
c-3 -3 -12 -4 -19 -1 -8 3 -5 6 6 6 11 1 17 -2 13 -5z m161 -31 c-12 -15 -22
-18 -13 -4 3 5 -7 12 -22 14 -20 3 -18 4 9 4 29 -1 35 -4 26 -14z m225 -2 c73
-2 36 -16 -45 -16 -57 0 -82 -4 -86 -13 -2 -7 0 -12 5 -10 11 3 96 -52 89 -59
-3 -3 -22 5 -43 18 -38 24 -42 25 -66 28 -7 0 -22 8 -33 16 -18 14 -17 15 11
9 23 -4 26 -3 15 5 -8 6 -25 11 -38 11 -13 0 -21 4 -17 10 3 5 42 8 88 6 45
-2 99 -4 120 -5z m-4548 -29 c-3 -3 -11 0 -18 7 -9 10 -8 11 6 5 10 -3 15 -9
12 -12z m4728 11 c-13 -2 -35 -2 -50 0 -16 2 -5 4 22 4 28 0 40 -2 28 -4z
m197 -12 c-8 -4 -44 -5 -80 -1 l-65 7 80 1 c45 1 73 -2 65 -7z m-4886 -7 c9
-3 16 -11 16 -16 0 -7 -5 -6 -13 1 -8 6 -17 8 -20 4 -4 -3 -7 -1 -7 5 0 14 2
14 24 6z m171 -64 c8 -13 -15 -13 -35 0 -12 8 -11 10 7 10 12 0 25 -4 28 -10z
m4816 -19 c-13 -18 -39 -35 -69 -45 -40 -13 -44 -13 -28 -1 11 8 26 15 33 15
7 0 27 14 45 30 39 38 45 38 19 1z m-481 -1 c9 -16 8 -18 -5 -14 -8 4 -15 12
-15 20 0 20 7 17 20 -6z m-4464 -19 c-3 -5 -19 -11 -36 -13 -36 -5 -27 8 10
15 14 2 26 5 28 6 2 0 1 -3 -2 -8z m4824 -46 c0 -2 -10 -9 -22 -15 -22 -11
-22 -10 -4 4 21 17 26 19 26 11z m-397 -148 c3 -8 -3 -14 -15 -14 -16 -2 -17
1 -8 13 15 17 17 17 23 1z m110 6 c-7 -2 -21 -2 -30 0 -10 3 -4 5 12 5 17 0
24 -2 18 -5z m72 -23 c-3 -5 -12 -10 -18 -10 -7 0 -6 4 3 10 19 12 23 12 15 0z
m-122 -7 c-7 -2 -21 -2 -30 0 -10 3 -4 5 12 5 17 0 24 -2 18 -5z m-5816 -49
c-3 -3 -12 -4 -19 -1 -8 3 -5 6 6 6 11 1 17 -2 13 -5z m-47 -18 c0 -9 -30 -14
-35 -6 -4 6 3 10 14 10 12 0 21 -2 21 -4z m-370 -70 c0 -2 -8 -10 -17 -17 -16
-13 -17 -12 -4 4 13 16 21 21 21 13z m-65 -56 c-3 -5 -13 -10 -21 -10 -9 0
-14 -10 -14 -27 0 -19 -3 -24 -9 -15 -4 8 -11 13 -15 13 -20 -3 -26 0 -21 9 3
6 0 10 -7 11 -17 0 52 26 75 28 10 0 15 -3 12 -9z m40 -78 c-6 -7 -34 11 -29
19 3 5 11 3 19 -4 7 -6 12 -13 10 -15z m-279 8 c13 0 24 -4 24 -9 0 -10 -68 3
-78 15 -4 4 1 4 11 1 10 -4 30 -7 43 -7z m99 0 c-3 -5 3 -10 14 -10 12 0 21
-4 21 -10 0 -12 0 -12 -40 2 -30 10 -32 12 -14 19 26 10 26 10 19 -1z m85 0
c0 -5 -2 -10 -4 -10 -3 0 -8 5 -11 10 -3 6 -1 10 4 10 6 0 11 -4 11 -10z
m-123 -26 c-3 -3 -12 -4 -19 -1 -8 3 -5 6 6 6 11 1 17 -2 13 -5z m160 0 c-3
-3 -12 -4 -19 -1 -8 3 -5 6 6 6 11 1 17 -2 13 -5z m1010 -10 c-3 -3 -12 -4
-19 -1 -8 3 -5 6 6 6 11 1 17 -2 13 -5z m1596 -1 c-7 -2 -19 -2 -25 0 -7 3 -2
5 12 5 14 0 19 -2 13 -5z m164 1 c-3 -3 -12 -4 -19 -1 -8 3 -5 6 6 6 11 1 17
-2 13 -5z m2650 0 c-3 -3 -12 -4 -19 -1 -8 3 -5 6 6 6 11 1 17 -2 13 -5z
m-5190 -10 c-3 -3 -12 -4 -19 -1 -8 3 -5 6 6 6 11 1 17 -2 13 -5z m7386 -51
c-7 -2 -19 -2 -25 0 -7 3 -2 5 12 5 14 0 19 -2 13 -5z m-7323 -38 c34 -18 85
-83 56 -72 -14 6 -17 3 -12 -8 3 -9 2 -13 -4 -10 -6 3 -10 -1 -10 -11 0 -15 2
-15 24 0 14 9 27 12 30 7 7 -10 -49 -33 -58 -24 -10 11 -6 49 6 61 9 9 8 12
-6 12 -10 0 -31 14 -46 30 -31 33 -24 38 20 15z m6337 -17 c-3 -8 -6 -5 -6 6
-1 11 2 17 5 13 3 -3 4 -12 1 -19z m-6484 -95 c-7 -2 -19 -2 -25 0 -7 3 -2 5
12 5 14 0 19 -2 13 -5z m147 -8 c5 3 11 1 14 -4 4 -5 -2 -8 -11 -7 -9 2 -18 8
-19 15 -1 6 0 7 3 1 2 -5 9 -8 13 -5z m3887 -17 c-3 -7 -5 -2 -5 12 0 14 2 19
5 13 2 -7 2 -19 0 -25z m-4217 12 c-20 -13 -33 -13 -25 0 3 6 14 10 23 10 15
0 15 -2 2 -10z m6683 -40 c3 -11 1 -20 -4 -20 -5 0 -9 9 -9 20 0 11 2 20 4 20
2 0 6 -9 9 -20z m257 -70 c0 -5 -2 -10 -4 -10 -3 0 -8 5 -11 10 -3 6 -1 10 4
10 6 0 11 -4 11 -10z m-2983 -192 c-3 -8 -6 -5 -6 6 -1 11 2 17 5 13 3 -3 4
-12 1 -19z m-3307 -142 c40 -13 42 -15 15 -15 -16 0 -41 6 -55 14 -32 18 -17
18 40 1z m-340 -290 c0 -2 -9 -6 -20 -9 -11 -3 -18 -1 -14 4 5 9 34 13 34 5z
m220 -158 c0 -4 -4 -8 -9 -8 -5 0 -17 -3 -27 -7 -16 -6 -17 -5 -4 8 15 17 40
21 40 7z m-75 -8 c-3 -5 -12 -10 -18 -10 -7 0 -6 4 3 10 19 12 23 12 15 0z
m11 -77 c-3 -3 -11 1 -19 8 -10 10 -11 16 -3 25 8 9 13 7 19 -9 4 -11 5 -22 3
-24z m-96 -22 c0 -5 -7 -12 -16 -15 -14 -5 -15 -4 -4 9 14 17 20 19 20 6z
m-40 -37 c0 -8 -4 -13 -9 -10 -5 3 -27 -12 -49 -34 -27 -28 -41 -36 -45 -27
-3 8 14 28 41 49 53 41 62 44 62 22z m-74 -141 c17 -13 35 -23 41 -23 5 0 23
-12 39 -27 24 -21 25 -23 4 -10 -14 9 -38 23 -55 31 -16 8 -43 26 -60 41 -34
30 -16 23 31 -12z m1214 -409 c0 -2 -7 -4 -15 -4 -8 0 -15 4 -15 10 0 5 7 7
15 4 8 -4 15 -8 15 -10z m-60 -13 c0 -5 6 -11 13 -14 16 -6 -20 2 -58 13 l-30
8 38 1 c20 1 37 -3 37 -8z m557 -37 c-3 -3 -12 -4 -19 -1 -8 3 -5 6 6 6 11 1
17 -2 13 -5z m38 -4 c3 -5 2 -10 -4 -10 -5 0 -13 5 -16 10 -3 6 -2 10 4 10 5
0 13 -4 16 -10z m545 -216 c0 -8 -19 -13 -24 -6 -3 5 1 9 9 9 8 0 15 -2 15 -3z
m2094 -49 c11 -8 16 -15 10 -15 -5 0 -18 7 -28 15 -11 8 -16 15 -10 15 5 0 18
-7 28 -15z m-39 -43 c-3 -3 -11 0 -18 7 -9 10 -8 11 6 5 10 -3 15 -9 12 -12z
m-2014 -20 c-7 -2 -18 1 -23 6 -8 8 -4 9 13 5 13 -4 18 -8 10 -11z m2262 11
c-7 -2 -19 -2 -25 0 -7 3 -2 5 12 5 14 0 19 -2 13 -5z m-1986 -9 c-3 -3 -12
-4 -19 -1 -8 3 -5 6 6 6 11 1 17 -2 13 -5z m119 -29 c16 -8 22 -15 14 -15 -18
1 -70 29 -54 30 7 0 25 -7 40 -15z m1604 10 c0 -2 -10 -9 -22 -15 -22 -11 -22
-10 -4 4 21 17 26 19 26 11z m933 -36 c30 -1 30 -2 -8 -10 -22 -4 -53 -7 -70
-7 -26 1 -24 2 10 8 37 7 37 7 10 10 -29 2 -30 2 -5 9 14 4 27 4 28 -1 2 -4
18 -9 35 -9z m-96 5 c-3 -3 -12 -4 -19 -1 -8 3 -5 6 6 6 11 1 17 -2 13 -5z
m-390 -10 c-3 -3 -12 -4 -19 -1 -8 3 -5 6 6 6 11 1 17 -2 13 -5z m-1957 -26
c0 -5 -9 -4 -20 2 -11 6 -20 12 -20 14 0 2 9 2 20 -1 11 -3 20 -9 20 -15z
m-74 -3 c9 -8 11 -15 6 -15 -5 0 -15 7 -22 15 -7 8 -9 15 -6 15 4 0 14 -7 22
-15z m1532 -20 c-3 -3 -18 -8 -34 -11 -22 -3 -25 -2 -14 6 15 10 58 14 48 5z
m652 -21 c-30 -14 -65 -27 -78 -29 -12 -1 -31 -10 -42 -20 -31 -28 -24 -9 10
25 30 30 50 38 50 20 0 -5 4 -10 10 -10 5 0 7 7 4 15 -4 8 -1 15 6 15 6 0 8
-4 5 -10 -9 -14 5 -12 35 5 14 8 32 14 40 14 8 0 -10 -12 -40 -25z m-775 6
c-11 -5 -27 -9 -35 -9 -9 0 -8 4 5 9 11 5 27 9 35 9 9 0 8 -4 -5 -9z m-1335
-15 c0 -7 -30 -13 -34 -7 -3 4 4 9 15 9 10 1 19 0 19 -2z m65 -15 c3 -6 -1 -7
-9 -4 -18 7 -21 14 -7 14 6 0 13 -4 16 -10z m1115 0 c-8 -5 -22 -9 -30 -9 -10
0 -8 3 5 9 27 12 43 12 25 0z m-994 -22 l19 -23 -25 20 c-14 11 -27 21 -29 22
-2 2 0 3 6 3 5 0 18 -10 29 -22z m1739 -17 c-3 -5 3 -11 12 -13 10 -2 -5 -7
-33 -11 -28 -4 -62 -3 -75 2 -21 9 -19 10 17 9 22 -1 49 4 60 10 24 14 27 14
19 3z m-1672 -8 c-7 -2 -19 -2 -25 0 -7 3 -2 5 12 5 14 0 19 -2 13 -5z m-43
-23 c13 -8 13 -10 -2 -10 -9 0 -20 5 -23 10 -8 13 5 13 25 0z m124 -8 c3 -5
-1 -9 -9 -9 -8 0 -12 4 -9 9 3 4 7 8 9 8 2 0 6 -4 9 -8z m-82 -27 c3 -13 1
-22 -3 -19 -9 5 -13 44 -5 44 2 0 6 -11 8 -25z m98 -4 c0 -14 -29 -21 -36 -9
-4 6 -3 8 4 4 6 -3 13 -2 17 4 8 12 15 13 15 1z m514 -23 c-3 -4 -9 -8 -15 -8
-5 0 -9 4 -9 8 0 5 7 9 15 9 8 0 12 -4 9 -9z m156 8 c0 -3 -4 -8 -10 -11 -5
-3 -10 -1 -10 4 0 6 5 11 10 11 6 0 10 -2 10 -4z m-80 -10 c0 -2 -7 -7 -16
-10 -8 -3 -12 -2 -9 4 6 10 25 14 25 6z m-367 -23 c-13 -2 -35 -2 -50 0 -16 2
-5 4 22 4 28 0 40 -2 28 -4z m1044 1 c-3 -3 -12 -6 -20 -8 -8 -1 -23 -8 -33
-16 -18 -14 -18 -14 -2 6 9 11 27 20 39 21 12 1 19 0 16 -3z m-1271 -52 c-17
-16 -18 -16 -5 5 7 12 15 20 18 17 3 -2 -3 -12 -13 -22z m-56 -7 c0 -2 -10 -9
-22 -15 -22 -11 -22 -10 -4 4 21 17 26 19 26 11z m204 -4 c3 -5 -1 -11 -9 -14
-9 -4 -12 -1 -8 9 6 16 10 17 17 5z m231 -1 c3 -5 1 -10 -4 -10 -6 0 -11 5
-11 10 0 6 2 10 4 10 3 0 8 -4 11 -10z m-505 -24 c0 -3 -4 -8 -10 -11 -5 -3
-10 -1 -10 4 0 6 5 11 10 11 6 0 10 -2 10 -4z m-448 -13 c-6 -2 -10 -8 -8 -12
3 -4 -9 -5 -27 -2 -31 4 -31 5 -7 12 29 8 62 10 42 2z m878 -7 c0 -2 -7 -7
-16 -10 -8 -3 -12 -2 -9 4 6 10 25 14 25 6z m-566 -20 c-3 -8 -16 -16 -30 -19
-31 -6 -30 -1 4 17 34 19 32 19 26 2z m331 -6 c-3 -5 -16 -15 -28 -21 -19 -9
-19 -8 3 10 28 23 34 26 25 11z m-807 -7 c-10 -2 -28 -2 -40 0 -13 2 -5 4 17
4 22 1 32 -1 23 -4z m272 -3 l25 -8 -25 -1 c-14 0 -32 4 -40 9 -13 9 -13 10 0
9 8 -1 26 -5 40 -9z m-203 -6 c-3 -3 -12 -4 -19 -1 -8 3 -5 6 6 6 11 1 17 -2
13 -5z m-110 -20 c-3 -3 -12 -4 -19 -1 -8 3 -5 6 6 6 11 1 17 -2 13 -5z m-210
-20 c-3 -3 -12 -4 -19 -1 -8 3 -5 6 6 6 11 1 17 -2 13 -5z m1023 -34 c-8 -5
-19 -10 -25 -10 -5 0 -3 5 5 10 8 5 20 10 25 10 6 0 3 -5 -5 -10z m37 -26 c-3
-3 -12 -4 -19 -1 -8 3 -5 6 6 6 11 1 17 -2 13 -5z m-146 -64 c-35 -17 -66 -28
-69 -25 -3 3 1 6 9 6 8 1 1 5 -16 9 -28 7 -27 8 11 7 23 0 52 7 65 16 13 10
33 17 44 17 11 0 -9 -14 -44 -30z m-118 -6 c-3 -9 -8 -11 -12 -6 -3 6 -17 12
-31 15 -19 3 -16 5 12 6 30 1 36 -2 31 -15z m-283 -28 c0 -3 -4 -8 -10 -11 -5
-3 -10 -1 -10 4 0 6 5 11 10 11 6 0 10 -2 10 -4z m-165 -86 c-3 -5 -12 -10
-18 -10 -7 0 -6 4 3 10 19 12 23 12 15 0z m-48 -26 c-3 -3 -12 -4 -19 -1 -8 3
-5 6 6 6 11 1 17 -2 13 -5z"/>
<path d="M4970 8531 c0 -5 7 -12 16 -15 8 -3 12 -11 8 -17 -4 -8 -9 -7 -15 2
-6 10 -8 6 -7 -13 1 -15 5 -26 8 -26 3 0 13 0 24 -1 15 -1 16 -4 6 -16 -9 -11
-9 -15 -1 -15 9 0 9 -5 1 -20 -12 -23 -5 -26 14 -7 7 7 11 18 8 26 -2 7 2 17
9 22 11 7 10 9 -4 9 -11 0 -15 5 -11 11 4 8 0 9 -15 4 -26 -8 -28 3 -2 13 14
5 17 12 10 30 -8 21 -49 32 -49 13z"/>
<path d="M5290 8421 c0 -11 4 -21 9 -21 18 0 21 18 6 30 -13 10 -15 9 -15 -9z"/>
<path d="M4977 8375 c-4 -8 -3 -16 1 -19 4 -3 9 4 9 15 2 23 -3 25 -10 4z"/>
<path d="M5065 8380 c-3 -5 -1 -10 4 -10 6 0 11 5 11 10 0 6 -2 10 -4 10 -3 0
-8 -4 -11 -10z"/>
<path d="M5088 8372 c-4 -12 -2 -25 3 -28 5 -3 9 -12 9 -20 0 -9 -5 -12 -12
-8 -6 4 -8 3 -4 -4 3 -6 20 -14 37 -17 33 -8 52 6 42 31 -4 11 -8 11 -20 -1
-8 -8 -19 -15 -24 -15 -10 0 -8 22 4 31 4 3 -1 16 -11 29 l-19 23 -5 -21z m22
-22 c0 -5 -2 -10 -4 -10 -3 0 -8 5 -11 10 -3 6 -1 10 4 10 6 0 11 -4 11 -10z"/>
<path d="M5263 8341 c-1 -11 4 -22 11 -24 8 -3 12 3 11 16 -2 27 -20 33 -22 8z"/>
<path d="M5300 8339 c0 -5 5 -7 10 -4 6 3 10 8 10 11 0 2 -4 4 -10 4 -5 0 -10
-5 -10 -11z"/>
<path d="M5180 8315 c0 -8 2 -15 4 -15 2 0 6 7 10 15 3 8 1 15 -4 15 -6 0 -10
-7 -10 -15z"/>
<path d="M4855 8380 c-3 -5 -1 -10 4 -10 6 0 11 5 11 10 0 6 -2 10 -4 10 -3 0
-8 -4 -11 -10z"/>
<path d="M1227 3783 c-4 -3 -7 -11 -7 -17 0 -6 5 -5 12 2 6 6 9 14 7 17 -3 3
-9 2 -12 -2z"/>
</g>
</svg>
